# xmcd
#
# Track frame offsets:
#  150
#  25387
#  41518
#  62459
#  80902
#  102991
#  131348
#  152829
#  172025
#  197202
#
# Disc length: 2884 seconds
#
# Revision: 0
# Processed by: cddbd v1.5.1PL2 Copyright (c) Steve Scherf et al.
# Submitted via: Collectorz.com_Music_Collector 6.11
#
DISCID=850b420a
DTITLE=Cabán Vale (El Topo), Antonio - Sentimientos Navideños
DYEAR=1900
DGENRE=
TTITLE0=Al Amanecer
TTITLE1=Brindemos
TTITLE2=Sueño Borincano
TTITLE3=Noche Sagrada
TTITLE4=La Llamada
TTITLE5=Venimos Cantando
TTITLE6=Calle San Sebastian
TTITLE7=Me Pide Calle
TTITLE8=Al Amanecer
TTITLE9=Me Pide Calle
EXTD=
EXTT0=
EXTT1=
EXTT2=
EXTT3=
EXTT4=
EXTT5=
EXTT6=
EXTT7=
EXTT8=
EXTT9=
PLAYORDER=
